<?xml version="1.0" standalone="no"?><!DOCTYPE svg PUBLIC "-//W3C//DTD SVG 1.1//EN" "http://www.w3.org/Graphics/SVG/1.1/DTD/svg11.dtd"><svg t="1569034960785" class="icon" viewBox="0 0 1024 1024" version="1.1" xmlns="http://www.w3.org/2000/svg" p-id="6945" xmlns:xlink="http://www.w3.org/1999/xlink" width="200" height="200"><defs><style type="text/css"></style></defs><path d="M513.849114 185.163163l417.004439 0c12.765745 0 25.530466 8.509814 25.530466 25.530466l0 0 0 591.464843c0 12.765745-12.765745 25.530466-25.530466 25.530466l0 0L513.849114 827.688939l0-51.061956 391.472949 0L905.322064 236.225119 513.849114 236.225119 513.849114 185.163163 513.849114 185.163163zM513.849114 644.718721l263.818571 0c12.765745 0 21.275559-8.509814 21.275559-21.275559 0-8.509814-8.509814-21.275559-21.275559-21.275559l-263.818571 0L513.849114 644.718721 513.849114 644.718721zM513.849114 517.064342l263.818571 0c12.765745 0 21.275559-8.509814 21.275559-17.020652 0-12.765745-8.509814-21.275559-21.275559-21.275559l-263.818571 0L513.849114 517.064342 513.849114 517.064342zM513.849114 393.665895l263.818571 0c12.765745 0 21.275559-8.509814 21.275559-21.275559s-8.509814-21.275559-21.275559-21.275559l-263.818571 0L513.849114 393.665895zM92.589768 185.163163l421.259346 0 0 51.061956L118.120234 236.225119l0 540.402887 395.72888 0 0 51.061956L92.589768 827.689962c-12.765745 0-25.530466-12.765745-25.530466-25.530466L67.059302 210.694653C67.058278 193.674001 79.824023 185.163163 92.589768 185.163163L92.589768 185.163163zM513.849114 351.113753 245.774613 351.113753c-12.765745 0-21.275559 8.509814-21.275559 21.275559s8.509814 21.275559 21.275559 21.275559l268.074501 0L513.849114 351.113753 513.849114 351.113753zM513.849114 478.768131 245.774613 478.768131c-12.765745 0-21.275559 8.509814-21.275559 21.275559 0 8.509814 8.509814 17.020652 21.275559 17.020652l268.074501 0L513.849114 478.768131 513.849114 478.768131zM513.849114 602.167602 245.774613 602.167602c-12.765745 0-21.275559 12.765745-21.275559 21.275559 0 12.765745 8.509814 21.275559 21.275559 21.275559l268.074501 0L513.849114 602.167602z" p-id="6946" fill="#ffffff"></path></svg>